# xmcd
#
# Track frame offsets:
#	150
#	22645
#	34777
#	53910
#	71205
#	80437
#	101182
#	117072
#	137995
#	153370
#	169040
#	183735
#	194022
#	209080
#	219570
#	234835
#	235587
#	257092
#
# Disc length: 3435 seconds
#
# Revision: 1
# Processed by: cddbd v1.5PL3 Copyright (c) Steve Scherf et al.
# Submitted via: audiograbber 1.82.02
#
DISCID=010d6912
DTITLE=Highway Shadows - Dixie
DYEAR=1900
DGENRE=Country
TTITLE0=Dixie
TTITLE1=Jackson
TTITLE2=Hillibilly Airport
TTITLE3=Old Fashioned Song
TTITLE4=Truck Drivin' Man
TTITLE5=Hey Bobby
TTITLE6=We Like To Drink Our Beer
TTITLE7=Dueling Banjos
TTITLE8=East Bound And Down
TTITLE9=Cotton Eyed Joe
TTITLE10=Carmelita
TTITLE11=Rocky Top
TTITLE12=Blue River Cajun Music
TTITLE13=Feelin' Single - Seeing Double
TTITLE14=High Noon
TTITLE15=Ansage zum Bonustrack
TTITLE16=Christmas Candle
TTITLE17=Anmerkung
EXTD=
EXTT0=
EXTT1=
EXTT2=
EXTT3=
EXTT4=
EXTT5=
EXTT6=
EXTT7=
EXTT8=
EXTT9=
EXTT10=
EXTT11=
EXTT12=
EXTT13=
EXTT14=
EXTT15=
EXTT16=
EXTT17=
PLAYORDER=
